<svg xmlns="http://www.w3.org/2000/svg" viewBox="0 0 1200 630">
  <defs>
    <linearGradient id="bg" x1="0%" y1="0%" x2="100%" y2="100%">
      <stop offset="0%" style="stop-color:#0f172a"/>
      <stop offset="100%" style="stop-color:#1e293b"/>
    </linearGradient>
    <linearGradient id="accent" x1="0%" y1="0%" x2="100%" y2="0%">
      <stop offset="0%" style="stop-color:#6c5ce7"/>
      <stop offset="100%" style="stop-color:#a29bfe"/>
    </linearGradient>
    <clipPath id="grid-clip">
      <rect width="1200" height="630"/>
    </clipPath>
  </defs>
  <rect width="1200" height="630" fill="url(#bg)"/>
  <g opacity="0.08" clip-path="url(#grid-clip)">
    <line x1="0" y1="0" x2="1200" y2="630" stroke="#6c5ce7" stroke-width="1"/>
    <line x1="200" y1="0" x2="1400" y2="630" stroke="#6c5ce7" stroke-width="1"/>
    <line x1="400" y1="0" x2="1600" y2="630" stroke="#6c5ce7" stroke-width="1"/>
    <line x1="600" y1="0" x2="1800" y2="630" stroke="#6c5ce7" stroke-width="1"/>
    <line x1="800" y1="0" x2="2000" y2="630" stroke="#6c5ce7" stroke-width="1"/>
    <line x1="1000" y1="0" x2="2200" y2="630" stroke="#6c5ce7" stroke-width="1"/>
    <line x1="1200" y1="0" x2="2400" y2="630" stroke="#6c5ce7" stroke-width="1"/>
    <line x1="-200" y1="0" x2="1000" y2="630" stroke="#6c5ce7" stroke-width="1"/>
    <line x1="0" y1="0" x2="1200" y2="630" stroke="#6c5ce7" stroke-width="1"/>
    <line x1="200" y1="0" x2="1400" y2="630" stroke="#6c5ce7" stroke-width="1"/>
    <line x1="400" y1="0" x2="1600" y2="630" stroke="#6c5ce7" stroke-width="1"/>
    <line x1="600" y1="0" x2="1800" y2="630" stroke="#6c5ce7" stroke-width="1"/>
    <line x1="800" y1="0" x2="2000" y2="630" stroke="#6c5ce7" stroke-width="1"/>
    <line x1="1000" y1="0" x2="2200" y2="630" stroke="#6c5ce7" stroke-width="1"/>
    <line x1="1200" y1="0" x2="2400" y2="630" stroke="#6c5ce7" stroke-width="1"/>
    <line x1="-400" y1="0" x2="800" y2="630" stroke="#6c5ce7" stroke-width="1"/>
    <line x1="-200" y1="0" x2="1000" y2="630" stroke="#6c5ce7" stroke-width="1"/>
    <line x1="0" y1="0" x2="1200" y2="630" stroke="#6c5ce7" stroke-width="1"/>
    <line x1="200" y1="0" x2="1400" y2="630" stroke="#6c5ce7" stroke-width="1"/>
    <line x1="400" y1="0" x2="1600" y2="630" stroke="#6c5ce7" stroke-width="1"/>
    <line x1="600" y1="0" x2="1800" y2="630" stroke="#6c5ce7" stroke-width="1"/>
    <line x1="800" y1="0" x2="2000" y2="630" stroke="#6c5ce7" stroke-width="1"/>
    <line x1="1000" y1="0" x2="2200" y2="630" stroke="#6c5ce7" stroke-width="1"/>
    <line x1="1200" y1="0" x2="2400" y2="630" stroke="#6c5ce7" stroke-width="1"/>
    <line x1="-600" y1="0" x2="600" y2="630" stroke="#6c5ce7" stroke-width="1"/>
    <line x1="-400" y1="0" x2="800" y2="630" stroke="#6c5ce7" stroke-width="1"/>
    <line x1="-200" y1="0" x2="1000" y2="630" stroke="#6c5ce7" stroke-width="1"/>
    <line x1="0" y1="630" x2="1200" y2="0" stroke="#6c5ce7" stroke-width="1"/>
    <line x1="200" y1="630" x2="1400" y2="0" stroke="#6c5ce7" stroke-width="1"/>
    <line x1="400" y1="630" x2="1600" y2="0" stroke="#6c5ce7" stroke-width="1"/>
    <line x1="600" y1="630" x2="1800" y2="0" stroke="#6c5ce7" stroke-width="1"/>
    <line x1="800" y1="630" x2="2000" y2="0" stroke="#6c5ce7" stroke-width="1"/>
    <line x1="1000" y1="630" x2="2200" y2="0" stroke="#6c5ce7" stroke-width="1"/>
    <line x1="1200" y1="630" x2="2400" y2="0" stroke="#6c5ce7" stroke-width="1"/>
  </g>
  <!-- Centered claw icon -->
  <g transform="translate(600, 220)">
    <!-- Outer glow ring -->
    <circle cx="0" cy="0" r="90" fill="none" stroke="url(#accent)" stroke-width="2" opacity="0.3"/>
    <circle cx="0" cy="0" r="110" fill="none" stroke="url(#accent)" stroke-width="1" opacity="0.15"/>
    <!-- Claw marks -->
    <path d="M-35,-50 L-35,10 L-45,30 M-35,10 L-25,30 M-35,10 L-35,35"
          stroke="#a29bfe" stroke-width="6" stroke-linecap="round" fill="none"/>
    <path d="M35,-50 L35,10 L25,30 M35,10 L45,30 M35,10 L35,35"
          stroke="#a29bfe" stroke-width="6" stroke-linecap="round" fill="none"/>
  </g>
  <!-- Title -->
  <text x="600" y="390" font-family="system-ui, -apple-system, sans-serif" font-size="80"
        font-weight="800" fill="#f8fafc" text-anchor="middle" letter-spacing="-2">
    Claw3D
  </text>
  <!-- Subtitle -->
  <text x="600" y="450" font-family="system-ui, -apple-system, sans-serif" font-size="28"
        font-weight="400" fill="#94a3b8" text-anchor="middle" letter-spacing="1">
    Focused Operator Studio for OpenClaw
  </text>
  <!-- Tagline pill -->
  <rect x="440" y="485" width="320" height="44" rx="22" fill="#6c5ce7" opacity="0.15"/>
  <text x="600" y="516" font-family="system-ui, -apple-system, sans-serif" font-size="18"
        font-weight="600" fill="#a29bfe" text-anchor="middle" letter-spacing="0.5">
    AI Agent Gateway • Next.js • React Three Fiber
  </text>
</svg>
